<svg width="192" height="28" viewBox="0 0 192 28" fill="none" xmlns="http://www.w3.org/2000/svg">
<path fill-rule="evenodd" clip-rule="evenodd" d="M76.2872 23.2254C78.5516 20.6724 79.8 17.394 79.8 14V12.25H65.45L67.375 15.75H76.1076C75.7814 17.6559 74.9264 19.448 73.6216 20.919C71.9233 22.8337 69.5785 24.0739 67.0236 24.4087C64.4687 24.7436 61.8776 24.1504 59.7324 22.7395C57.5872 21.3286 56.034 19.1961 55.3617 16.7387C54.6895 14.2813 54.944 11.6664 56.0779 9.38048C57.2118 7.09456 59.1479 5.29331 61.5259 4.31186C63.904 3.3304 66.562 3.23557 69.0056 4.04501C71.4491 4.85445 73.5118 6.51304 74.8097 8.7122L77.8713 6.9496C76.1407 4.01739 73.3905 1.80594 70.1325 0.72668C66.8744 -0.352576 63.3303 -0.226136 60.1596 1.08248C56.9889 2.39109 54.4074 4.79275 52.8955 7.84064C51.3837 10.8885 51.0443 14.3751 51.9406 17.6516C52.837 20.9281 54.9079 23.7715 57.7682 25.6527C60.6284 27.5339 64.0832 28.3248 67.4898 27.8783C70.8964 27.4318 74.0227 25.7783 76.2872 23.2254ZM28.35 14C28.35 21.732 22.0036 28 14.175 28C6.34636 28 0 21.732 0 14C0 6.26803 6.34636 1.75051e-05 14.175 1.75051e-05C22.0036 1.75051e-05 28.35 6.26803 28.35 14ZM3.50593 14C3.50593 19.8196 8.28263 24.5374 14.175 24.5374C20.0674 24.5374 24.8441 19.8196 24.8441 14C24.8441 8.1804 20.0674 3.46267 14.175 3.46267C8.28263 3.46267 3.50593 8.1804 3.50593 14ZM38.85 0.117068H42.35V10.2671L38.85 12.3671V0.117068ZM140.808 15.225H132.65L131.25 12.6583V27.65H127.75V0.700002H129.5H131.25H143.062C147.073 0.700002 150.325 3.95153 150.325 7.9625C150.325 11.3944 147.944 14.2703 144.745 15.0292L151.427 27.6552L147.522 27.6552L140.808 15.225ZM131.25 3.96687H143.325C145.548 3.96687 147.35 5.76892 147.35 7.99187C147.35 10.2148 145.548 12.0169 143.325 12.0169H131.25V3.96687ZM108.337 20.9999L111.824 27.6167L115.729 27.6167L101.325 0.699997L100.503 2.42509L87.1499 27.6166L90.9994 27.6166L95.7273 18.7141L97.1242 20.9999H108.337ZM96.1863 17.8499L101.451 7.93622L106.676 17.8499H96.1863ZM187.458 27.6167L183.971 20.9999H172.758L171.361 18.7141L166.634 27.6166L162.784 27.6166L176.137 2.42504L176.959 0.699997L191.363 27.6167L187.458 27.6167ZM177.085 7.93622L171.82 17.8499H182.311L177.085 7.93622Z" fill="#D9D9D9"/>
</svg>
